<svg xmlns="http://www.w3.org/2000/svg" version="1.1" xmlns:xlink="http://www.w3.org/1999/xlink" width="1080" height="1080"><svg id="SvgjsSvg1130" data-name="Capa 1" xmlns="http://www.w3.org/2000/svg" viewBox="0 0 1080 1080">
  <defs>
    <style>
      .cls-1 {
        fill: #431c28;
        stroke: #000;
        stroke-miterlimit: 10;
        stroke-width: 1.26px;
      }

      .cls-2 {
        fill: #fa7b21;
      }

      .cls-3 {
        fill: #fff;
      }

      .cls-4 {
        fill: #fca929;
      }

      .cls-5 {
        fill: #d11417;
      }

      .cls-6 {
        fill: #150c12;
      }

      .cls-7 {
        fill: #190f14;
      }

      .cls-8 {
        fill: #1f141b;
      }

      .cls-9 {
        fill: #160e13;
      }

      .cls-10 {
        fill: #1d1419;
      }

      .cls-11 {
        fill: #1d1319;
      }

      .cls-12 {
        fill: #1d1119;
      }

      .cls-13 {
        fill: #271b23;
      }
    </style>
  </defs>
  <circle class="cls-3" cx="540" cy="540" r="538"></circle>
  <g>
    <path class="cls-2" d="M741.28,823.7c3.55-11.53,8.77-22.55,10.62-34.59,.49-3.17,.58-6.4,.85-9.6-1.26-1.64-1.25-3.58-1.13-5.47,1.1-16.98-1.3-33.66-3.86-47.28,.48,15.02-1.56,32.68-6.55,50.04-10.64,37.06-31.86,67.1-60.88,91.93-3.15,2.7-5.99,6.59-11.09,5.91-15.29,9.1-30.43,18.54-50.12,22.92,22.66-17.82,42.89-35.35,58.79-57.26,2.35-2.97,3.46-6.26,2.54-10.05-6.74-5.57-14.24-5.3-21.51-1.87-40.94,19.33-76.67,45.68-106.6,79.76-7.56,8.61-14.89,17.39-21.52,26.74-7.3,10.29-13.78,20.96-16.44,33.53-.34,1.59-.91,3.16-2.46,4.07-2.43,4.45-.42,9.01,.04,15.56-9.35-12.28-14.26-24.57-17.86-37.41-8.71-31.05-5.29-61.28,6.65-90.85-.53-7.34,5.5-12.1,7.67-19.11-9.16,1.22-15.81,6.14-22.26,11.48-2.68,2.22-4.58,5.5-8.39,6.19-10.23,11.42-13.11,25.75-16.13,40.06-.17-43.42,7.41-84.55,35.26-119.79,5.71-7.23,11.14-14.67,16.7-22.02,.6-6.93,6.44-10.3,9.26-14.29-14.18-1.01-25.71,8.61-38.83,13.9-9.13,6.67-13.7,16.42-18.27,28.53-3.11-16.53-.13-30.16,5.83-43.31,4.73-10.44,11.09-19.9,18.25-28.85,1.63-2.04,4.21-3.59,4.18-6.71,1.84-8.16,10.58-10.43,14.01-17.23-9.33,1.67-17.88,6.4-26.83,9.96-2.75,1.09-5.3,2.95-8.52,2.2-5.54,3.29-11.08,6.58-17.92,10.64,.8-9.71,1.51-18.37,2.24-27.03,2.37-27.78-.13-55.24-5.78-82.44-1.3-6.27-3.03-12.67-7.78-17.57-2.08-2.18-3.56-5.05-6.76-5.97-13.74-4.94-25.84-.65-37.93,5.95-9.72,5.31-19.41,10.97-30.51,13.21-4,.81-8.02,1.88-11.67-1.08-14.23-4.85-27.32-11.83-36.88-23.61-8.39-10.35-17.51-19.73-28.08-27.8-7.14-5.45-14.78-9.72-23.67-11.64-30.32-6.55-43.65-30.21-55.5-55.32-2.21-4.68,2.3-4.85,4.44-6.02,26.27-14.35,52.64-28.52,78.97-42.77,9.33-5.05,18.61-10.2,27.91-15.31,4.1-2.12,8.21-4.23,12.31-6.35,7.79-4.03,11.98-10.28,11-19.19-3.94-35.64,13.86-60.83,39.37-82.32,22.61-19.05,48.35-33.45,73.61-48.44,16.46-9.76,30.11-21.78,41.44-37.26,18.67-25.48,38.01-50.44,54.31-77.58,4.63-7.71,8.24-15.91,12.56-25.15,7.12,8.82,11.92,18.08,16.95,27.17,2.24,4.04,4.14,8.26,6.11,12.44,1,2.13,1.98,2.94,4.15,1.08,18.52-15.92,36.09-32.54,43.27-57.04,.75-2.56,1.02-5.27,1.8-9.47,5.49,11.92,5.26,23.79,8.7,34.68,4.83,6.6,4.06,14.45,4.54,21.89,2.53,39.35-1.08,78.09-13.19,115.76-2.46,7.65,1.56,12.35,5.55,17.49,1.53,.15,3.05,.3,4.58,.45,16.64,3.73,33.19,7.82,49.48,12.9,16.95,1.89,30.97,11.04,45.39,18.87,26.5,14.39,49.57,33.37,70.47,55.04,8.81,10.31,17.64,20.61,25.08,31.99,1.33,2.03,2.94,4.52,1.36,6.78-1.73,2.47-4.4,1.08-6.7,.3-15.39-7.22-30.99-14.01-46.51-21.02,11.6,7.24,19.19,18.5,28.5,27.99,11.49,13.64,21.74,28.15,30.61,43.64,10.86,21.44,19.14,43.62,19.59,68.05-1,9.28,1.76,18.82-1.92,27.9-3.53,4.96-5.88,1.78-7.7-1.4-2.93-5.12-5.11-10.64-8.06-15.76-7.01-14.72-15.4-28.81-20.27-44.47,7.03,23.76,11.79,48.03,15.79,72.42,6.06,36.93,8.72,74.01,2.62,111.27-2.58,15.76-7.19,30.72-16.6,43.88-5.8,4.96-9.51,12.99-18.78,12.91-1.01-.05-2.02-.09-3.02-.14-1.66-3.98,.87-7.31,1.7-10.9,1.86-8.08,5.34-15.97,2.85-24.55-.95-6.72-1.43-13.55-5.12-20.16-6.25,40.04-19.78,77.12-40.3,111.65-4.94,5.07-6.07,13.22-13.28,16.46-4.91,5.94-9.81,11.88-14.72,17.82Z"></path>
    <path class="cls-6" d="M356.57,596.53c14.85-.72,27.67-7.15,40.35-14.14,8.32-4.59,16.76-9.07,26.72-9.1,5.11-.02,9.58,1.2,13.04,5.16-3.91,4.24-9.63,3.17-14.44,4.73-14.04,4.54-25.92,13.65-40.04,18.11-7.82,2.47-15.01,.75-22.43-.52-2.14-.36-2.98-2.19-3.21-4.24Z"></path>
    <path class="cls-9" d="M511.93,972.5c-.11-10.54,4.51-19.61,9.93-28.01,34.14-52.91,80.49-91.9,137.11-118.95,4.5-2.15,9.38-2.83,14.36-2.26,4.14,.48,7.28,2.08,7.13,6.98-17.62,2.32-31.82,12.24-46.3,21.27-23.4,14.6-44.69,32.05-63.45,52.16-17.22,18.46-33.62,37.76-44.27,61.18-2.61,5.74-5.69,12.71-14.51,7.62Z"></path>
    <path class="cls-12" d="M484.04,756.21c11.34-11.31,25.13-16.22,41.8-16.05-3.15,6.78-7.71,11.6-12.23,16.45-6.64-1.16-10.98,3.31-15.98,6.34-3.54,2.14-6.94,6.74-11.39,4.41-4.2-2.2-1.21-7.41-2.2-11.14Z"></path>
    <path class="cls-12" d="M477.79,858.35c8.64-12.38,20.29-19.63,36.59-21.51-4.93,8.31-9.26,15.63-13.6,22.96-2.85,.14-5.16,1.52-7.38,3.14-10.29,7.51-10.96,7.31-15.6-4.58Z"></path>
    <path class="cls-7" d="M472.68,700.81c12.87-7.46,26.49-12.93,42.08-16.5-7.47,7.77-14.1,14.67-20.73,21.57-3.37,.86-6.77,1.64-10.11,2.6-6.88,1.97-11.17,.28-11.24-7.67Z"></path>
    <path class="cls-8" d="M646.24,281.76c-10.06-3.83-11.73-6.53-8.66-16.36,12-38.37,16.34-77.59,13.56-117.65-.49-7.05-1.19-14.09-1.8-21.13,5.41,.49,7.23,4.58,8.18,8.91,1.79,8.21,2.91,16.52,3.54,24.93,3.09,41.44-4.66,81.5-14.83,121.3Z"></path>
    <path class="cls-11" d="M669.25,874.65c33.51-25.41,57.36-57.65,69.37-98.24,5.85-19.77,7.95-39.94,6.74-60.57,8.18,20.53,11.2,41.69,7.39,63.68-5.3,3.59-5.55,9.93-7.25,15.05-9.65,29.04-25.87,53.76-47.69,74.9-7.41,7.18-15.45,13.74-25.07,17.96-2.43,1.07-5.2,3.14-7.47,.56-1.99-2.26,.23-4.67,1.51-6.61,1.38-2.11,2.65-4.11,2.47-6.73Z"></path>
    <path class="cls-1" d="M637.61,131.38c5.29,44.5,2.21,86.4-10.29,127.63-6.45,21.27-.72,31.01,21.09,34.93,57.17,10.28,106.66,35.33,148.47,75.65,2.12,2.05,5.01,3.31,6.59,6.02-7.22,.14-12.46-3.39-18.16-5.65-6.29-2.49-11.98-2.3-15.94,3.64-4,6-2.02,11.44,3.04,15.97,17.92,16.04,34.95,32.9,49.07,52.47,13.32,18.47,23.65,38.36,28.14,61.03-4.39-8.86-8.71-17.75-13.18-26.56-3.92-7.73-9.23-10.35-15.61-7.95-6.23,2.35-8.44,7.81-6.47,16.24,8.47,36.32,17.06,72.62,20.98,109.81,3.42,32.42,3.6,64.67-4.47,96.6-3.07-.41-2.55-2.72-2.86-4.35-1.04-5.4-3.01-10.47-5.35-15.39-5.37-11.25-9.89-14.79-17.12-13.16-9.55,2.14-9.16,10.47-10.2,17.54-4.29,29.34-13.11,57.24-26.19,83.82-.57,1.15-1.35,2.2-3.05,4.93,.04-18.97-2.7-35.67-8.55-51.79-.84-2.3-1.59-4.66-2.71-6.82-2.88-5.51-7.57-7.98-13.59-6.34-5.63,1.53-8.45,5.66-8.33,11.62,.17,8.72,.76,17.46,.42,26.16-1.41,36.73-15.73,68.37-38.57,97.4-4.55-22.48-19.88-29.42-41.86-19.29-24.37,11.22-46.97,25.42-67.84,42.28-30.99,25.04-58.05,53.59-77.83,88.52-.24,.42-.81,.66-1.77,1.42-8.81-33.86-4.73-65.51,13.14-95.31,1.96-3.27,4.42-6.25,6.25-9.58,4.55-8.28-.36-17.05-9.83-17.45-9.55-.4-18.21,2.79-26.41,7.38-2.3,1.29-4.56,2.64-7.84,4.55,1.7-10.36,5.47-18.7,9.64-26.87,9.88-19.35,24.28-35.48,37.52-52.45,2.85-3.65,5.89-7.2,8.37-11.1,5.3-8.35,.59-17.41-9.3-18.33-11.89-1.1-21.36,1.14-40.3,9.77,4.84-10.13,11.39-17.89,18.02-25.52,5.54-6.37,11.5-12.39,17.46-18.39,4.8-4.84,7.98-10.1,3.97-16.68-3.69-6.05-9.41-6.42-15.82-4.64-11.31,3.13-22.34,6.98-32.99,11.92-8.35,3.88-8.4,3.88-8.05-5.68,.96-26.25-.76-52.3-6.31-78-1.08-5.02-2.69-10.01-4.7-14.74-9.24-21.71-28.64-30-50.93-22.05-10.07,3.59-19.01,9.45-28.56,14.08-17.16,8.31-27.74,6.95-41.59-6.1-6.54-6.16-12.68-12.78-18.69-19.47-13.99-15.57-30.16-27.35-51.05-32.05-20.49-4.61-30.49-20.65-39.36-37.61-2.57-4.91,2.28-5.38,4.72-6.71,32.31-17.57,64.7-35,97.07-52.47,4.32-2.33,8.64-4.65,12.9-7.08,10.94-6.23,17.19-15.64,15.78-28.24-3.66-32.59,12.88-55.04,36.01-74.45,19.1-16.02,40.72-28.27,61.94-41.1,54.52-32.97,104.6-72,153.71-112.32,10.02-8.23,18.81-17.84,27.38-29.73Z"></path>
    <path class="cls-13" d="M852.69,537.25c-4.22,3.49-3.79,8.23-3.15,12.82,5.16,37.34,11.79,74.61,9.37,112.52-1.2,18.9-2.5,38.01-11.62,55.34-1.25,2.38-2.71,4.8-4.6,6.65-2.39,2.34-4.26,6.7-8.41,5.28-4.11-1.41-4.51-5.72-4.85-9.59,15.62-22.52,18.3-48.54,19.46-74.71,2.04-46.08-6.61-90.95-16.79-135.58-1.87-8.19-3.67-16.39-5.48-24.59-.04-.18,.21-.43,.83-1.61,8.6,18.21,16.92,35.84,25.24,53.47Z"></path>
    <path class="cls-10" d="M816.59,697.58c-4.22,7.12-6.26,14.99-8.31,22.92-6.19,24.07-14.66,47.29-27.73,68.55-5.49,8.94-7.36,8.68-13.44-.1,15.62-27.89,28.44-56.92,35.39-88.28,2.1-9.49,3.78-19.08,5.95-30.14,5.88,9.15,9.18,17.42,8.13,27.05Z"></path>
    <path class="cls-4" d="M614.72,188.79c-15.2,34.81-35.17,64.81-63.58,90.59h46.74c-10.53,15.8-29.85,25.81-54.98,27.72,34.94,12.78,68.72,18.42,106.39,10.94-13.63,9.31-25.34,17.31-38.29,26.16,36.79,9.49,71.39,19.77,93.35,52.92-17.26-6.08-34.52-12.17-53.6-18.89,32.99,40.15,52.77,83.81,54.58,136.59-6.14-7.49-11.12-13.74-16.29-19.83-7.6-8.94-15.34-17.78-25.29-24.25-4.78-3.11-7.59-3.26-7.51,4.14,.36,33.04-4.26,65.28-18.48,95.44-11.54,24.48-29.08,42.65-56.38,49.36-11.38,2.8-22.94,3.35-35.56,2.29,4.77-2.49,9.2-2.28,13.32-3.3,28.34-7.01,44.61-25.78,51.5-53.38,6.83-27.34,4.05-54.66-1.06-81.86-1.9-10.15-4.89-20.09-6.79-30.24-3.13-16.74,5.41-24.6,21.86-20.26,5.17,1.36,10.11,3.58,17.23,6.15-30.22-24.91-58.74-48.46-87.3-71.96q-12.37-10.18,2.36-17.21c5.63-2.69,11.24-5.4,17.84-8.57-8.62-6.48-17.98-7.64-27.26-8.34-17.79-1.33-34.54,3.33-50.87,9.92-5.3,2.14-10.62,4.26-16.06,5.96-2.84,.89-6.17,1.06-8.29-1.74-1.94-2.56-.47-5.26,.64-7.71,5.02-11.06,12.88-20.15,20.4-29.49,1.66-2.07,4.08-3.63,4.81-6.98-9.05-3.31-17.05-.21-24.79,3.86-20.46,10.73-34.92,27.62-46.91,46.79-6.49,10.38-12.32,21.19-18.24,31.91-4.06,7.36-9.47,13.17-16.88,17.27-15.58,8.62-28.7,20.73-43.23,30.86-23.78,16.58-49.6,29.5-75.13,42.98-2.61,1.38-5.1,3-7.73,4.55,26.8,26.77,56.66,34.9,92,17.75,14.73-7.15,26.77-17.83,36.6-30.8,3.46-4.57,5.9-4.67,10.47-1.61,12.67,8.47,12.77,8.24,17.58-6.29,5.85-17.68,12.73-34.82,26.19-48.4,17.74-17.9,34.88-18.55,55.45-1.41-6.08,1.5-11.69,2.65-17.16,4.28-25.4,7.6-34.22,24.31-26.37,49.47,9.08,29.11,21.95,56.9,30.07,86.34,4.13,14.99,7.38,30.2,7.17,45.86-.11,8.79-2.79,16.72-10.22,22.18-5.64,4.15-7.72,3.24-8.42-3.82-1.71-17.41-3.81-34.67-12.37-50.4-10.26-18.85-21.92-23.83-42.64-18.24-18.05,4.87-34.67,12.79-50.44,22.74-8.01,5.05-13.81,4.22-18.97-1.7-5.78-6.62-4.28-14.89,3.52-19.09,4.64-2.5,9.88-2.96,14.92-4.05,16.4-3.55,31.72-9.81,45.95-18.63,10.41-6.45,13.9-13.5,10.52-20.36-3.59-7.29-13.3-10.55-23.69-6.81-9.97,3.59-19.45,8.5-29.3,12.44-23.35,9.33-47.12,15.57-72.47,8.75-10.67-2.87-20.7-7.12-28.96-14.53-7.53-6.76-15.27-13.18-23.75-18.67-4.95-3.2-5.81-5.09,.55-8.26,27.31-13.62,54.09-28.25,79.55-45.17,11.59-7.7,23.09-15.56,32.51-25.93,2.99-3.29,6.87-4.14,10.68-5.47,22.86-7.99,38.94-28.86,39.85-51.98,.18-4.52,1.11-9.73-4.09-12.33-4.64-2.32-8.36,.86-12.01,3.12-2.73,1.69-5.22,3.79-8.68,6.35,.41-4.74,3.18-7.11,5.28-9.59,26.21-30.95,60.6-48.12,99.09-58.14,4.33-1.13,8.03-2.56,11.55-5.45,34.75-28.58,70.6-55.76,106.25-83.2,.54-.42,1.3-.56,3.24-1.35Z"></path>
    <path class="cls-2" d="M784.93,571.63c-3.17-8.5-5.49-15.16-8.16-21.68-1.01-2.48-2.6-4.8-4.31-6.89-2.3-2.82-5.3-5.37-9.15-3.93-3.66,1.37-2.19,5.2-2.27,7.97-1.12,39.37-5.53,78.24-18.32,115.72-10.25,30.03-23.97,57.99-50.06,77.86-10.72,8.17-22.57,13.99-36.71,15.09,2.83-2.06,5.66-4.13,8.49-6.18,6.24-4.51,11.83-9.66,15.69-16.43,7.12-12.48,5.62-25.57-4.07-36.17-28.71-31.39-71.82-29.38-99.4,4.62-12.42,15.31-19.45,33.27-25.4,51.76-1.19,3.7-2.52,7.36-4.19,10.88,3.64-44.19,21.3-81.79,53.45-112.33,11.46-10.88,23.79-20.84,35.4-31.56,8.14-7.52,16.08-15.36,20.82-27.93,4.41,14.47,4.78,26.6-2.96,38.08-3.35,4.96-7.39,9.52-10.28,14.72-3.66,6.58-1.7,10.44,5.42,13.27,8.06,3.21,15.04-.07,21.73-3.76,19.54-10.78,34.67-26.19,46.3-45.14,18.45-30.07,26.02-63.27,27.39-98.02,.89-22.59,1.27-45.24-1.35-67.8-.3-2.55-1.21-6.07,2.02-7.19,2.21-.77,3.6,2.01,4.79,3.77,26.47,39.17,39.41,82.02,35.12,131.27Z"></path>
    <path class="cls-5" d="M408.7,344.85c.99,23.96-13.22,44.84-34.48,52.5-5.51,1.99-7.88,.47-9.04-5.08-2.92-13.95,2.95-25.59,16.42-30.83,9.69-3.77,19.11-7.81,27.1-16.6Z"></path>
  </g>
</svg><style>@media (prefers-color-scheme: light) { :root { filter: contrast(1) brightness(1); } }
@media (prefers-color-scheme: dark) { :root { filter: none; } }
</style></svg>